<mxfile host="app.diagrams.net" modified="2021-04-15T08:21:34.294Z" agent="5.0 (Windows NT 10.0; Win64; x64) AppleWebKit/537.36 (KHTML, like Gecko) Chrome/89.0.4389.128 Safari/537.36" etag="KPkf7MvkqQ_JUTI7Xv-i" version="14.5.8" type="github">
  <diagram id="nrDciIblCpiYUuHGCeY0" name="Page-1">
    <mxGraphModel dx="981" dy="526" grid="1" gridSize="10" guides="1" tooltips="1" connect="1" arrows="1" fold="1" page="1" pageScale="1" pageWidth="827" pageHeight="1169" math="0" shadow="0">
      <root>
        <mxCell id="0" />
        <mxCell id="1" parent="0" />
        <mxCell id="f7xwfzKOFIW1NVeSOzqq-15" style="edgeStyle=none;rounded=0;orthogonalLoop=1;jettySize=auto;html=1;exitX=0.5;exitY=0.5;exitDx=0;exitDy=0;exitPerimeter=0;entryX=1;entryY=0.5;entryDx=0;entryDy=0;" edge="1" parent="1" source="f7xwfzKOFIW1NVeSOzqq-1" target="f7xwfzKOFIW1NVeSOzqq-9">
          <mxGeometry relative="1" as="geometry" />
        </mxCell>
        <mxCell id="f7xwfzKOFIW1NVeSOzqq-1" value="用户" style="shape=umlActor;verticalLabelPosition=bottom;verticalAlign=top;html=1;outlineConnect=0;" vertex="1" parent="1">
          <mxGeometry x="560" y="260" width="30" height="60" as="geometry" />
        </mxCell>
        <mxCell id="f7xwfzKOFIW1NVeSOzqq-13" style="rounded=0;orthogonalLoop=1;jettySize=auto;html=1;exitX=0.875;exitY=0.5;exitDx=0;exitDy=0;exitPerimeter=0;entryX=0;entryY=0.5;entryDx=0;entryDy=0;" edge="1" parent="1" source="f7xwfzKOFIW1NVeSOzqq-5" target="f7xwfzKOFIW1NVeSOzqq-6">
          <mxGeometry relative="1" as="geometry" />
        </mxCell>
        <mxCell id="f7xwfzKOFIW1NVeSOzqq-14" style="edgeStyle=none;rounded=0;orthogonalLoop=1;jettySize=auto;html=1;exitX=0.875;exitY=0.5;exitDx=0;exitDy=0;exitPerimeter=0;entryX=0;entryY=0.5;entryDx=0;entryDy=0;" edge="1" parent="1" source="f7xwfzKOFIW1NVeSOzqq-5" target="f7xwfzKOFIW1NVeSOzqq-7">
          <mxGeometry relative="1" as="geometry" />
        </mxCell>
        <mxCell id="f7xwfzKOFIW1NVeSOzqq-16" style="edgeStyle=none;rounded=0;orthogonalLoop=1;jettySize=auto;html=1;exitX=0.875;exitY=0.5;exitDx=0;exitDy=0;exitPerimeter=0;entryX=0;entryY=0.5;entryDx=0;entryDy=0;" edge="1" parent="1" source="f7xwfzKOFIW1NVeSOzqq-5" target="f7xwfzKOFIW1NVeSOzqq-11">
          <mxGeometry relative="1" as="geometry" />
        </mxCell>
        <mxCell id="f7xwfzKOFIW1NVeSOzqq-18" value="正确" style="edgeLabel;html=1;align=center;verticalAlign=middle;resizable=0;points=[];" vertex="1" connectable="0" parent="f7xwfzKOFIW1NVeSOzqq-16">
          <mxGeometry x="0.2127" y="1" relative="1" as="geometry">
            <mxPoint as="offset" />
          </mxGeometry>
        </mxCell>
        <mxCell id="f7xwfzKOFIW1NVeSOzqq-17" style="edgeStyle=none;rounded=0;orthogonalLoop=1;jettySize=auto;html=1;exitX=0.875;exitY=0.5;exitDx=0;exitDy=0;exitPerimeter=0;entryX=0;entryY=0.4;entryDx=0;entryDy=0;entryPerimeter=0;" edge="1" parent="1" source="f7xwfzKOFIW1NVeSOzqq-5" target="f7xwfzKOFIW1NVeSOzqq-12">
          <mxGeometry relative="1" as="geometry" />
        </mxCell>
        <mxCell id="f7xwfzKOFIW1NVeSOzqq-19" value="错误" style="edgeLabel;html=1;align=center;verticalAlign=middle;resizable=0;points=[];" vertex="1" connectable="0" parent="f7xwfzKOFIW1NVeSOzqq-17">
          <mxGeometry x="0.2817" y="-2" relative="1" as="geometry">
            <mxPoint as="offset" />
          </mxGeometry>
        </mxCell>
        <mxCell id="f7xwfzKOFIW1NVeSOzqq-5" value="平台" style="ellipse;shape=cloud;whiteSpace=wrap;html=1;" vertex="1" parent="1">
          <mxGeometry x="60" y="240" width="120" height="80" as="geometry" />
        </mxCell>
        <mxCell id="f7xwfzKOFIW1NVeSOzqq-6" value="朗读教材" style="ellipse;whiteSpace=wrap;html=1;" vertex="1" parent="1">
          <mxGeometry x="280" y="180" width="120" height="50" as="geometry" />
        </mxCell>
        <mxCell id="f7xwfzKOFIW1NVeSOzqq-7" value="朗读问题" style="ellipse;whiteSpace=wrap;html=1;" vertex="1" parent="1">
          <mxGeometry x="280" y="240" width="120" height="50" as="geometry" />
        </mxCell>
        <mxCell id="f7xwfzKOFIW1NVeSOzqq-9" value="回答问题" style="ellipse;whiteSpace=wrap;html=1;" vertex="1" parent="1">
          <mxGeometry x="280" y="300" width="120" height="50" as="geometry" />
        </mxCell>
        <mxCell id="f7xwfzKOFIW1NVeSOzqq-11" value="回答正确" style="ellipse;whiteSpace=wrap;html=1;" vertex="1" parent="1">
          <mxGeometry x="340" y="380" width="100" height="50" as="geometry" />
        </mxCell>
        <mxCell id="f7xwfzKOFIW1NVeSOzqq-12" value="朗读答案" style="ellipse;whiteSpace=wrap;html=1;" vertex="1" parent="1">
          <mxGeometry x="260" y="440" width="100" height="50" as="geometry" />
        </mxCell>
      </root>
    </mxGraphModel>
  </diagram>
</mxfile>
